<mxfile host="app.diagrams.net" modified="2023-11-17T08:30:14.305Z" agent="Mozilla/5.0 (Windows NT 10.0; Win64; x64) AppleWebKit/537.36 (KHTML, like Gecko) Chrome/116.0.0.0 Safari/537.36" version="22.1.2" etag="Ivs11ft4e3qoS5WLGgBs" type="github">
  <diagram name="Trang-1" id="IHlkrmXpfIu-otZJ9k1Z">
    <mxGraphModel>
      <root>
        <mxCell id="0" />
        <mxCell id="1" parent="0" />
      </root>
    </mxGraphModel>
  </diagram>
</mxfile>
